<svg fill="none" id="Calque_1" data-name="Calque 1" xmlns="http://www.w3.org/2000/svg" viewBox="0 0 377.57 134.97"><defs><style>.cls-1{fill:#00d369;}.cls-2{fill:#060e33;}</style></defs><path class="cls-1" d="M76.7,39v19.7c0,.5-.1,1.8-.1,2.3v.2c-.7,11.2-8.4,18.1-20.2,18.1a18.68,18.68,0,0,1-13.8-5.6,18.46,18.46,0,0,1-4.9-13.6c.4-9.4,8.5-16.3,18.7-16.3h0a16.12,16.12,0,0,1,6,.9v9.6l-.5-.2a10.08,10.08,0,0,0-4.5-.8c-3.2-.1-6.1,1-7.7,2.9a8.22,8.22,0,0,0-1.9,5.3,8.42,8.42,0,0,0,1.9,5.4,9.55,9.55,0,0,0,7.7,2.9c6.8-.3,8.6-5.8,9.1-9.1.2-1.6.3-4.8.3-5.2V32.87a27.55,27.55,0,0,0-9.5-1.7A28.65,28.65,0,1,0,76.7,39Z"/><path class="cls-1" d="M130.2,35.27a2.5,2.5,0,1,0-5,0v14.9a14.39,14.39,0,0,0-4.3-3.4,15,15,0,0,0-6.7-1.5,15.5,15.5,0,0,0-7.7,2,14.53,14.53,0,0,0-5.4,5.6,16.26,16.26,0,0,0-2,7.9,16,16,0,0,0,2,7.9,14.36,14.36,0,0,0,5.6,5.6,15.23,15.23,0,0,0,7.9,2,16,16,0,0,0,7.9-2,15,15,0,0,0,5.6-5.6,15.48,15.48,0,0,0,2-7.9V48a.75.75,0,0,0-.1-.5V35.27Zm-4.9,25.5a11.34,11.34,0,0,1-1.4,5.6,10.44,10.44,0,0,1-3.8,4h0a9.91,9.91,0,0,1-5.4,1.4,11.52,11.52,0,0,1-5.5-1.4,10.44,10.44,0,0,1-3.8-4,11.92,11.92,0,0,1-1.4-5.6,11.34,11.34,0,0,1,1.4-5.6,9.52,9.52,0,0,1,3.8-3.9,11.24,11.24,0,0,1,5.5-1.4,10.53,10.53,0,0,1,7.1,2.6,11,11,0,0,1,3.5,6.7.6.6,0,0,0,.1.4A3.45,3.45,0,0,0,125.3,60.77Z"/><path class="cls-1" d="M155.3,47.17a13.72,13.72,0,0,0-7.3-1.9,14.86,14.86,0,0,0-7.6,2,13.42,13.42,0,0,0-5.2,5.6,17.91,17.91,0,0,0-1.9,8.1,16.09,16.09,0,0,0,2,8,14.79,14.79,0,0,0,5.5,5.6A16.69,16.69,0,0,0,159,73a1.93,1.93,0,0,0,.7-1.5,2.39,2.39,0,0,0-4-1.7,8.24,8.24,0,0,1-3.1,1.6,13.32,13.32,0,0,1-3.8.7,10.71,10.71,0,0,1-7.4-2.7,10,10,0,0,1-3.3-6.6h21.6a2.52,2.52,0,0,0,1.7-.6,2.41,2.41,0,0,0,.7-1.7,16.61,16.61,0,0,0-1.8-7.8A13.36,13.36,0,0,0,155.3,47.17Zm-14,5a9.48,9.48,0,0,1,6.6-2.5,8.44,8.44,0,0,1,6.4,2.5,10,10,0,0,1,2.9,6.1H138.1a11,11,0,0,1,3.2-6.1Z"/><path class="cls-1" d="M174.7,71.17h-1.4a2.37,2.37,0,0,1-2.1-1.3,6.4,6.4,0,0,1-.9-3.6V35.17a2.4,2.4,0,0,0-2.5-2.5,2.06,2.06,0,0,0-1.7.7,2.41,2.41,0,0,0-.7,1.8v31.1a10.67,10.67,0,0,0,2.2,7,6.92,6.92,0,0,0,5.7,2.8h.7a2.72,2.72,0,0,0,2-.7,2.5,2.5,0,0,0,.8-1.8,2.35,2.35,0,0,0-.6-1.7A2,2,0,0,0,174.7,71.17Z"/><path class="cls-1" d="M182.5,45.47A2.4,2.4,0,0,0,180,48v25.6a2.5,2.5,0,1,0,5,0V48a2.41,2.41,0,0,0-.7-1.8A2.87,2.87,0,0,0,182.5,45.47Z"/><path class="cls-1" d="M182.5,35.37a3.58,3.58,0,0,0-2.4.9,3,3,0,0,0-1,2.4,3.25,3.25,0,0,0,1,2.4,3,3,0,0,0,2.4,1,3.41,3.41,0,0,0,3.4-3.4,3,3,0,0,0-1-2.4A3.58,3.58,0,0,0,182.5,35.37Z"/><path class="cls-1" d="M217.3,47.77a2.33,2.33,0,0,0-1.3-2.1,2.56,2.56,0,0,0-2.4.1,2.19,2.19,0,0,0-.9,1l-10,22-10.1-21.9a2.72,2.72,0,0,0-.8-1,2.45,2.45,0,0,0-2.2-.1,2.24,2.24,0,0,0-1.4,2.1,2.39,2.39,0,0,0,.2.9l12.1,25.7a2.42,2.42,0,0,0,2.3,1.6,2.45,2.45,0,0,0,2.4-1.6l12-25.8A2.77,2.77,0,0,0,217.3,47.77Z"/><path class="cls-1" d="M239.5,47.17a13.72,13.72,0,0,0-7.3-1.9,14.86,14.86,0,0,0-7.6,2,13.42,13.42,0,0,0-5.2,5.6,17.91,17.91,0,0,0-1.9,8.1,16.09,16.09,0,0,0,2,8,14.79,14.79,0,0,0,5.5,5.6A16.69,16.69,0,0,0,243.2,73a1.93,1.93,0,0,0,.7-1.5,2.39,2.39,0,0,0-4-1.7,8.24,8.24,0,0,1-3.1,1.6,13.32,13.32,0,0,1-3.8.7,10.71,10.71,0,0,1-7.4-2.7,10,10,0,0,1-3.3-6.6h21.6a2.52,2.52,0,0,0,1.7-.6,2.41,2.41,0,0,0,.7-1.7,16.61,16.61,0,0,0-1.8-7.8A13.36,13.36,0,0,0,239.5,47.17Zm-14,5a9.48,9.48,0,0,1,6.6-2.5,8.44,8.44,0,0,1,6.4,2.5,10,10,0,0,1,2.9,6.1H222.3a11.61,11.61,0,0,1,3.2-6.1Z"/><path class="cls-1" d="M269,48.47c0-.2.1-.3.1-.6a2.08,2.08,0,0,0-1.6-2h0a9.73,9.73,0,0,0-3.8-.6,11.54,11.54,0,0,0-9,4.1v-1.3a2.14,2.14,0,0,0-.7-1.8,2.48,2.48,0,0,0-1.8-.7,2.14,2.14,0,0,0-1.8.7,2.48,2.48,0,0,0-.7,1.8v25.7a2.14,2.14,0,0,0,.7,1.8,2.48,2.48,0,0,0,1.8.7,2.14,2.14,0,0,0,1.8-.7,2.48,2.48,0,0,0,.7-1.8V57.47a6.63,6.63,0,0,1,2.5-5.4,9.67,9.67,0,0,1,6.4-2.1,4.51,4.51,0,0,1,1.3.1,13.05,13.05,0,0,0,1.7.1,3.34,3.34,0,0,0,1.5-.3A3.39,3.39,0,0,0,269,48.47Z"/><path class="cls-1" d="M290.6,47.17a13.72,13.72,0,0,0-7.3-1.9,14.86,14.86,0,0,0-7.6,2,13.42,13.42,0,0,0-5.2,5.6,17.91,17.91,0,0,0-1.9,8.1,16.09,16.09,0,0,0,2,8,14.79,14.79,0,0,0,5.5,5.6A16.69,16.69,0,0,0,294.3,73a1.93,1.93,0,0,0,.7-1.5,2.39,2.39,0,0,0-4-1.7,8.24,8.24,0,0,1-3.1,1.6,13.32,13.32,0,0,1-3.8.7,10.71,10.71,0,0,1-7.4-2.7,10,10,0,0,1-3.3-6.6H295a2.52,2.52,0,0,0,1.7-.6,2.41,2.41,0,0,0,.7-1.7,16.61,16.61,0,0,0-1.8-7.8A13.36,13.36,0,0,0,290.6,47.17Zm2,11.2H273.5a10.52,10.52,0,0,1,3.1-6.1,9.48,9.48,0,0,1,6.6-2.5,8.44,8.44,0,0,1,6.4,2.5A9.62,9.62,0,0,1,292.6,58.37Z"/><path class="cls-1" d="M310.4,51.17a9.75,9.75,0,0,1,5.1-1.4,9.58,9.58,0,0,1,4.2.9,12.26,12.26,0,0,1,3.5,2.6,2.27,2.27,0,0,0,3.1.5,2.24,2.24,0,0,0,1.1-1.8,2.39,2.39,0,0,0-.5-1.4,13.94,13.94,0,0,0-11.4-5.4,15.13,15.13,0,0,0-7.6,2,14.32,14.32,0,0,0-5.3,5.6,16.58,16.58,0,0,0-1.9,8,16,16,0,0,0,2,7.9,14.79,14.79,0,0,0,5.5,5.6,14.64,14.64,0,0,0,7.8,2,14.47,14.47,0,0,0,10.2-3.8,2.13,2.13,0,0,0,.7-1.5,2.27,2.27,0,0,0-.9-1.8,2.45,2.45,0,0,0-3.2.2,10,10,0,0,1-6.8,2.3,10.58,10.58,0,0,1-5.4-1.4,9.92,9.92,0,0,1-3.7-3.9,11.84,11.84,0,0,1-1.3-5.6,13.22,13.22,0,0,1,1.2-5.7A11.3,11.3,0,0,1,310.4,51.17Z"/><path class="cls-1" d="M348.4,71.87h0a2.06,2.06,0,0,0-1.7-.7h-1.5a4.75,4.75,0,0,1-3.9-1.7,6.26,6.26,0,0,1-1.5-4.3V51h5.8a2.52,2.52,0,0,0,1.7-.6,2.11,2.11,0,0,0,.6-1.6,2.27,2.27,0,0,0-.6-1.6,2.35,2.35,0,0,0-1.7-.6h-5.8v-8.1a2.5,2.5,0,1,0-5,0v8.1h-3.2a2.52,2.52,0,0,0-1.7.6,2.27,2.27,0,0,0-.6,1.6,2.45,2.45,0,0,0,.6,1.6,2.35,2.35,0,0,0,1.7.6h3.2v14.2a11.57,11.57,0,0,0,1.3,5.6,9.94,9.94,0,0,0,9.1,5.3h1.1a2.57,2.57,0,0,0,2.7-2.5A2.72,2.72,0,0,0,348.4,71.87Z"/><path class="cls-2" d="M111.73,101.1A7.83,7.83,0,1,1,114,95.59,7.51,7.51,0,0,1,111.73,101.1Zm-5.51-.13A5,5,0,0,0,110,99.4a5.52,5.52,0,0,0,0-7.63,5.25,5.25,0,0,0-7.49,0,5.55,5.55,0,0,0,0,7.63A5,5,0,0,0,106.22,101Z"/><path class="cls-2" d="M116.38,103.12V92.51h2.33V94a3.47,3.47,0,0,1,3.22-1.65,3.78,3.78,0,0,1,2.95,1.21,4.58,4.58,0,0,1,1.1,3.22v6.39h-2.33v-6a3.05,3.05,0,0,0-.59-2,2,2,0,0,0-1.61-.71,2.49,2.49,0,0,0-2,.91,3.9,3.9,0,0,0-.76,2.57v5.22Z"/><path class="cls-2" d="M129,103.12V87.21h2.34v15.91Z"/><path class="cls-2" d="M135.61,90.2a1.5,1.5,0,0,1-1.1-.46,1.52,1.52,0,0,1,0-2.2,1.54,1.54,0,0,1,1.1-.46,1.48,1.48,0,0,1,1.1.46,1.57,1.57,0,0,1,0,2.2A1.44,1.44,0,0,1,135.61,90.2Zm-1.17,12.92V92.51h2.34v10.61Z"/><path class="cls-2" d="M139.92,103.12V92.51h2.33V94a3.47,3.47,0,0,1,3.22-1.65,3.79,3.79,0,0,1,2.95,1.21,4.62,4.62,0,0,1,1.1,3.22v6.39h-2.33v-6a3.05,3.05,0,0,0-.59-2,2,2,0,0,0-1.62-.71,2.48,2.48,0,0,0-2,.91,3.9,3.9,0,0,0-.76,2.57v5.22Z"/><path class="cls-2" d="M157.31,103.33a5.41,5.41,0,0,1-4-1.55,5.54,5.54,0,0,1,4-9.48A5,5,0,0,1,161,93.7a5.1,5.1,0,0,1,1.46,3.86c0,.28,0,.54,0,.76h-8.34a2.9,2.9,0,0,0,1,2.09,3.64,3.64,0,0,0,5.3-.81l1.78,1.27A5.27,5.27,0,0,1,157.31,103.33Zm-3.14-6.7h5.89a2.66,2.66,0,0,0-1-1.73,2.91,2.91,0,0,0-1.86-.63,3.29,3.29,0,0,0-2,.62A2.72,2.72,0,0,0,154.17,96.63Z"/><path class="cls-2" d="M178.54,101.73a5.52,5.52,0,1,1,0-7.83,5.59,5.59,0,0,1,0,7.83Zm-3.95-.57a3,3,0,0,0,2.28-1,3.61,3.61,0,0,0,0-4.77,3.19,3.19,0,0,0-4.58,0,3.61,3.61,0,0,0,0,4.77A3,3,0,0,0,174.59,101.16Z"/><path class="cls-2" d="M182.5,103.12V92.51h2.33V94.4A2.82,2.82,0,0,1,185.92,93a2.92,2.92,0,0,1,1.71-.55,4.51,4.51,0,0,1,.91.08v2.4a3.25,3.25,0,0,0-1.16-.19,2.29,2.29,0,0,0-1.81.86,3.53,3.53,0,0,0-.74,2.38v5.18Z"/><path class="cls-2" d="M194.54,103.33a4.73,4.73,0,0,1-3.63-1.61,5.89,5.89,0,0,1,0-7.81,4.73,4.73,0,0,1,3.63-1.61,4.22,4.22,0,0,1,2,.48,4,4,0,0,1,1.4,1.15V87.21h2.33v15.91h-2.33V101.7a4,4,0,0,1-1.4,1.15A4.22,4.22,0,0,1,194.54,103.33Zm-1.84-3.1a3.12,3.12,0,0,0,4.54,0,3.72,3.72,0,0,0,0-4.83,3.12,3.12,0,0,0-4.54,0,3.72,3.72,0,0,0,0,4.83Z"/><path class="cls-2" d="M208.22,103.33a5.4,5.4,0,0,1-4-1.55,5.54,5.54,0,0,1,4-9.48,4.9,4.9,0,0,1,5.11,5.26c0,.28,0,.54,0,.76H205a2.9,2.9,0,0,0,1,2.09,3.64,3.64,0,0,0,5.3-.81l1.78,1.27A5.28,5.28,0,0,1,208.22,103.33Zm-3.14-6.7H211a2.71,2.71,0,0,0-1-1.73,2.88,2.88,0,0,0-1.85-.63,3.27,3.27,0,0,0-2,.62A2.73,2.73,0,0,0,205.08,96.63Z"/><path class="cls-2" d="M215.73,103.12V92.51h2.33V94.4a2.79,2.79,0,0,1,1.1-1.44,2.9,2.9,0,0,1,1.7-.55,4.51,4.51,0,0,1,.91.08v2.4a3.17,3.17,0,0,0-1.16-.19,2.26,2.26,0,0,0-1.8.86,3.48,3.48,0,0,0-.75,2.38v5.18Z"/><path class="cls-2" d="M227,103.33a5.77,5.77,0,0,1-2.59-.56,3.6,3.6,0,0,1-1.67-1.69l1.71-1.23a2.39,2.39,0,0,0,1,1.07,3.11,3.11,0,0,0,1.53.39A1.94,1.94,0,0,0,228,101a1,1,0,0,0,.43-.83.92.92,0,0,0-.35-.76,3.92,3.92,0,0,0-1.28-.6l-.93-.25q-2.82-.77-2.78-3.25a2.63,2.63,0,0,1,1.08-2.2,4.36,4.36,0,0,1,2.72-.83,3.9,3.9,0,0,1,3.58,1.8l-1.61,1.23a2.44,2.44,0,0,0-2-1.08,1.79,1.79,0,0,0-1,.27.81.81,0,0,0-.43.73,1,1,0,0,0,.28.72,2.33,2.33,0,0,0,1,.53l1.08.32A5,5,0,0,1,230,98a2.72,2.72,0,0,1,.75,2,3,3,0,0,1-1.09,2.4A4.21,4.21,0,0,1,227,103.33Z"/><path class="cls-2" d="M234.43,103.29a1.73,1.73,0,0,1-1.28-.55,1.82,1.82,0,0,1,0-2.59,1.73,1.73,0,0,1,1.28-.55,1.85,1.85,0,0,1,0,3.69Z"/><path class="cls-1" d="M248.28,103.37a7,7,0,0,1-3.24-.74,4.9,4.9,0,0,1-2.12-2l2-1.55a4,4,0,0,0,3.5,1.93,2.87,2.87,0,0,0,1.76-.52,1.64,1.64,0,0,0,.68-1.35c0-1-.72-1.77-2.15-2.29L247,96.29a6.14,6.14,0,0,1-2.69-1.69,4.16,4.16,0,0,1,.51-5.64,5.28,5.28,0,0,1,3.52-1.16,5.64,5.64,0,0,1,4.56,2.06l-1.72,1.68a3.57,3.57,0,0,0-2.86-1.4,3,3,0,0,0-1.69.46,1.47,1.47,0,0,0-.69,1.28,1.57,1.57,0,0,0,.52,1.24,6.12,6.12,0,0,0,1.77.92l1.53.57a6.39,6.39,0,0,1,2.65,1.72,3.91,3.91,0,0,1,.89,2.69,4,4,0,0,1-1.4,3.15A5.37,5.37,0,0,1,248.28,103.37Z"/><path class="cls-1" d="M256.85,90.2a1.5,1.5,0,0,1-1.1-.46,1.52,1.52,0,0,1,0-2.2,1.54,1.54,0,0,1,1.1-.46,1.48,1.48,0,0,1,1.1.46,1.57,1.57,0,0,1,0,2.2A1.44,1.44,0,0,1,256.85,90.2Zm-1.17,12.92V92.51H258v10.61Z"/><path class="cls-1" d="M274.66,103.12v-6a3.7,3.7,0,0,0-.47-2,1.59,1.59,0,0,0-1.41-.72,2.19,2.19,0,0,0-1.81.87,4.09,4.09,0,0,0-.72,2.44v5.39h-2.33v-6a3.61,3.61,0,0,0-.48-2,1.58,1.58,0,0,0-1.41-.72,2.21,2.21,0,0,0-1.85.91,4.2,4.2,0,0,0-.69,2.57v5.22h-2.33V92.51h2.33V94a3.6,3.6,0,0,1,6.3.45,3.36,3.36,0,0,1,1.36-1.55,3.87,3.87,0,0,1,2-.55,3.45,3.45,0,0,1,2.8,1.21,4.9,4.9,0,0,1,1,3.27v6.34Z"/><path class="cls-1" d="M282.32,107.55H280v-15h2.33v1.42a3.84,3.84,0,0,1,1.41-1.15,4.25,4.25,0,0,1,2-.48,4.74,4.74,0,0,1,3.64,1.61,5.92,5.92,0,0,1,0,7.81,4.74,4.74,0,0,1-3.64,1.61,4.25,4.25,0,0,1-2-.48,3.84,3.84,0,0,1-1.41-1.15Zm3-6.34a3,3,0,0,0,2.27-1,3.72,3.72,0,0,0,0-4.83,3.14,3.14,0,0,0-4.56,0,3.72,3.72,0,0,0,0,4.83A3,3,0,0,0,285.31,101.21Z"/><path class="cls-1" d="M293.22,103.12V87.21h2.33v15.91Z"/><path class="cls-1" d="M299.86,90.2a1.51,1.51,0,0,1-1.11-.46,1.55,1.55,0,0,1,0-2.2,1.55,1.55,0,0,1,1.11-.46,1.51,1.51,0,0,1,1.1.46,1.57,1.57,0,0,1,0,2.2A1.47,1.47,0,0,1,299.86,90.2Zm-1.17,12.92V92.51H301v10.61Z"/><path class="cls-1" d="M305.16,103.12V94.59H303V92.51h2.21V90.73a3.51,3.51,0,0,1,1-2.68,3.6,3.6,0,0,1,2.61-1,5.38,5.38,0,0,1,1.73.26v2.08a3.15,3.15,0,0,0-1.25-.22A1.54,1.54,0,0,0,307.49,91v1.5h3v2.08h-3v8.53Zm8.4-12.92a1.51,1.51,0,0,1-1.11-.46,1.55,1.55,0,0,1,0-2.2,1.55,1.55,0,0,1,1.11-.46,1.57,1.57,0,0,1,1.1,2.66A1.46,1.46,0,0,1,313.56,90.2Zm-1.17,12.92V92.51h2.33v10.61Z"/><path class="cls-1" d="M322.66,103.33a5.41,5.41,0,0,1-4-1.55,5.54,5.54,0,0,1,4-9.48,4.91,4.91,0,0,1,5.11,5.26c0,.28,0,.54,0,.76h-8.34a2.9,2.9,0,0,0,1,2.09,3.64,3.64,0,0,0,5.3-.81l1.78,1.27A5.27,5.27,0,0,1,322.66,103.33Zm-3.14-6.7h5.89a2.66,2.66,0,0,0-1-1.73,2.91,2.91,0,0,0-1.86-.63,3.27,3.27,0,0,0-2,.62A2.72,2.72,0,0,0,319.52,96.63Z"/><path class="cls-1" d="M334.51,103.33a4.77,4.77,0,0,1-3.64-1.61,5.92,5.92,0,0,1,0-7.81,4.77,4.77,0,0,1,3.64-1.61,4.21,4.21,0,0,1,2,.48,3.89,3.89,0,0,1,1.4,1.15V87.21h2.34v15.91H337.9V101.7a3.89,3.89,0,0,1-1.4,1.15A4.21,4.21,0,0,1,334.51,103.33Zm-1.85-3.1a3.12,3.12,0,0,0,4.54,0,3.72,3.72,0,0,0,0-4.83,3.12,3.12,0,0,0-4.54,0,3.72,3.72,0,0,0,0,4.83Z"/><path class="cls-1" d="M344.62,103.29a1.73,1.73,0,0,1-1.28-.55,1.82,1.82,0,0,1,0-2.59,1.73,1.73,0,0,1,1.28-.55,1.85,1.85,0,0,1,0,3.69Z"/></svg>
