<svg width="100%" height="100%" viewBox="0 0 157 32" fill="none" xmlns="http://www.w3.org/2000/svg">
<g clip-path="url(#clip0_4284_48427)">
<path d="M6.70505 31.3539H0.00249199V10.178C-0.0184397 8.16478 0.570877 6.19246 1.69283 4.52077C2.81644 2.84604 4.41928 1.54934 6.29173 0.80026C8.15041 0.0097317 10.204 -0.203124 12.1853 0.189386C14.1653 0.581315 15.9812 1.5609 17.3962 3.00035L24.1822 9.75464L19.4334 14.4864L12.6433 7.73505C12.1632 7.2411 11.5448 6.90412 10.8695 6.76848C10.1936 6.63321 9.49264 6.70556 8.85868 6.97602C8.21894 7.2295 7.67118 7.67108 7.28771 8.24245C6.90497 8.81271 6.70481 9.48594 6.71386 10.1727L6.70505 31.3539Z" fill="currentColor"></path>
<path d="M25.6026 31.9997C24.2728 31.9956 22.957 31.7282 21.731 31.213C20.5063 30.6986 19.3958 29.9464 18.4638 29L11.679 22.2422L16.4254 17.5127L23.2126 24.2682C23.693 24.7615 24.3113 25.0979 24.9865 25.233C25.6622 25.369 26.3632 25.2971 26.9972 25.0267C27.6368 24.7726 28.1844 24.3306 28.5676 23.7591C28.9503 23.1883 29.1502 22.5147 29.1409 21.8277V0.656982H35.857V21.8277C35.8779 23.8412 35.2886 25.8139 34.1666 27.486C33.0427 29.1611 31.4397 30.4583 29.5671 31.2083C28.3102 31.7292 26.9632 31.9981 25.6026 31.9997Z" fill="currentColor"></path>
</g>
<path fill-rule="evenodd" clip-rule="evenodd" d="M137.045 0V30.67L137.065 30.6827H142.171V17.501C142.163 16.8719 142.298 16.2491 142.566 15.6797C142.83 15.1253 143.197 14.6256 143.646 14.2068C144.116 13.7716 144.668 13.4335 145.27 13.2122C145.929 12.972 146.626 12.853 147.328 12.8612C148.133 12.8094 148.938 12.9737 149.658 13.3369C150.305 13.6936 150.806 14.2653 151.073 14.9522C151.403 15.8332 151.558 16.7696 151.53 17.7096V30.6827H156.635V17.3356C156.634 15.3464 156.349 13.6887 155.783 12.3626C155.284 11.1199 154.394 10.0725 153.245 9.37878C152.122 8.71571 150.729 8.3842 149.066 8.3842C147.889 8.38704 146.726 8.64116 145.655 9.1295C144.583 9.60172 143.609 10.2695 142.783 11.0984C142.541 11.3361 142.319 11.5924 142.12 11.8644V0H137.045ZM57.8931 1.6713V30.6701L63.2541 30.6675V19.4343C63.2541 19.0477 63.249 18.6432 63.2336 18.2133C63.2183 17.7834 63.1903 17.3078 63.1494 16.7812C63.1086 16.2572 63.0601 15.6018 63.0039 14.8149C62.9477 14.028 62.8712 13.0885 62.7742 11.9964L62.5947 9.98068L78.3109 30.6675H83.2609V1.66875H77.8999V10.371C77.8999 11.5598 77.9135 12.6858 77.9407 13.7491C77.9679 14.8141 78.0028 15.8316 78.0454 16.8016C78.0879 17.7716 78.1433 18.6975 78.2113 19.5794C78.2828 20.4595 78.3594 21.3074 78.4411 22.1231C78.4646 22.3584 78.4895 22.592 78.5156 22.8237L62.7588 1.6713H57.8931ZM93.5388 29.5914C94.9819 30.5788 96.6949 31.1001 98.4454 31.0847C99.4585 31.0891 100.465 30.9187 101.419 30.581C102.321 30.2642 103.175 29.825 103.957 29.276C104.628 28.8092 105.224 28.2453 105.726 27.6032V30.665H110.924V8.82172H105.767V11.8724C105.338 11.2363 104.82 10.6638 104.228 10.1725C103.513 9.57943 102.695 9.12242 101.815 8.82427C100.837 8.49785 99.8112 8.33704 98.7798 8.34856C96.9554 8.32336 95.1628 8.82715 93.6204 9.79855C92.0736 10.7905 90.8239 12.1798 90.0031 13.8202C89.0911 15.6344 88.6347 17.6421 88.673 19.6708C88.6347 21.6995 89.0911 23.7072 90.0031 25.5214C90.8157 27.1553 92.0325 28.5559 93.5388 29.5914ZM103.023 25.6945C102.076 26.2852 100.977 26.5884 99.8597 26.5669C98.7496 26.5905 97.6573 26.287 96.7197 25.6945C95.8048 25.0997 95.0773 24.2593 94.6212 23.2703C94.1021 22.1475 93.8455 20.922 93.8706 19.6861C93.8468 18.4699 94.1036 17.2646 94.6212 16.163C95.0821 15.1825 95.8089 14.3498 96.7197 13.7591C97.6581 13.1686 98.75 12.8661 99.8597 12.8892C100.976 12.8682 102.075 13.1703 103.023 13.7591C103.945 14.3483 104.687 15.1803 105.164 16.163C105.693 17.2614 105.955 18.4682 105.93 19.6861C105.957 20.9238 105.695 22.1507 105.164 23.2703C104.691 24.2616 103.95 25.1013 103.023 25.6945ZM124.194 31.0843C122.405 31.1133 120.63 30.7819 118.973 30.11C117.5 29.5101 116.205 28.5473 115.208 27.3119L118.526 24.4527C119.283 25.339 120.238 26.036 121.314 26.4877C122.344 26.903 123.445 27.1138 124.556 27.1084C124.987 27.1159 125.418 27.0602 125.833 26.9431C126.188 26.8434 126.52 26.6748 126.81 26.447C127.076 26.2401 127.296 25.9802 127.456 25.6839C127.61 25.3824 127.688 25.048 127.683 24.7096C127.695 24.4066 127.633 24.1053 127.503 23.8313C127.372 23.5572 127.178 23.3184 126.935 23.1351C126.525 22.8779 126.085 22.6696 125.626 22.5144C124.874 22.2474 124.107 22.0257 123.328 21.8505C122.034 21.5388 120.779 21.0876 119.583 20.5048C118.705 20.0828 117.915 19.4984 117.255 18.7827C116.787 18.2646 116.426 17.6595 116.193 17.0021C115.953 16.3091 115.834 15.5804 115.841 14.8475C115.829 13.9299 116.05 13.0242 116.484 12.2148C116.925 11.4164 117.527 10.7182 118.253 10.1645C119.037 9.56502 119.925 9.11487 120.872 8.83665C121.884 8.53168 122.935 8.37822 123.992 8.38131C125.08 8.37803 126.164 8.51741 127.216 8.79591C128.233 9.06327 129.211 9.46 130.126 9.97624C130.989 10.4612 131.765 11.0843 132.424 11.8205L129.601 14.9264C129.071 14.4287 128.493 13.9847 127.875 13.6011C127.276 13.2278 126.642 12.9151 125.981 12.6676C125.41 12.4465 124.805 12.3276 124.194 12.3165C123.718 12.311 123.244 12.3596 122.779 12.4615C122.408 12.5394 122.054 12.687 121.738 12.8965C121.467 13.0824 121.246 13.3313 121.094 13.6215C120.935 13.9367 120.856 14.2861 120.865 14.639C120.89 14.9652 120.982 15.2828 121.135 15.5725C121.288 15.8628 121.51 16.1116 121.781 16.2974C122.219 16.5566 122.677 16.7787 123.152 16.9614C123.923 17.2573 124.716 17.4929 125.524 17.666C126.696 17.9578 127.838 18.3598 128.934 18.8666C129.746 19.2328 130.48 19.7509 131.097 20.3929C131.611 20.8701 131.997 21.4684 132.22 22.1329C132.449 22.8427 132.562 23.5849 132.554 24.3306C132.57 25.5784 132.184 26.7982 131.451 27.8105C130.683 28.8606 129.65 29.6899 128.457 30.2144C127.116 30.8105 125.661 31.1074 124.194 31.0843Z" fill="currentColor"></path>
<title>Nash logo</title>
<defs>
<clipPath id="clip0_4284_48427">
<rect width="35.8575" height="32" fill="white"></rect>
</clipPath>
</defs>
</svg>